<?xml version="1.0" standalone="no"?>
<!DOCTYPE svg PUBLIC "-//W3C//DTD SVG 20010904//EN"
 "http://www.w3.org/TR/2001/REC-SVG-20010904/DTD/svg10.dtd">
<svg version="1.0" xmlns="http://www.w3.org/2000/svg"
 width="2000.000000pt" height="2155.000000pt" viewBox="0 0 2000.000000 2155.000000"
 preserveAspectRatio="xMidYMid meet">

<g transform="translate(0.000000,2155.000000) scale(0.100000,-0.100000)"
fill="#000000" stroke="none">
<path d="M8805 21213 c-653 -51 -1140 -183 -1675 -454 -433 -219 -799 -487
-1152 -845 -352 -357 -624 -736 -850 -1187 -363 -726 -543 -1587 -500 -2394 7
-126 19 -280 27 -343 8 -63 22 -189 30 -280 150 -1600 682 -3016 1528 -4070
l36 -44 -122 -43 c-67 -24 -194 -71 -282 -105 -156 -59 -162 -63 -260 -147
-223 -191 -434 -415 -614 -651 -547 -715 -886 -1613 -1000 -2645 -19 -170 -41
-457 -41 -536 l0 -36 108 -17 c432 -70 845 -345 1173 -782 414 -552 671 -1343
696 -2149 l5 -190 -200 -170 c-111 -93 -201 -175 -201 -181 -1 -5 9 -30 21
-55 17 -34 22 -63 22 -124 1 -71 -3 -88 -32 -147 -40 -81 -102 -139 -181 -169
-74 -28 -195 -23 -259 10 -66 34 -128 96 -159 160 -37 75 -40 200 -6 273 74
162 275 247 427 180 27 -12 54 -22 60 -22 7 0 88 53 181 118 l170 119 -2 144
c-11 867 -331 1732 -832 2251 -167 174 -322 289 -506 378 -438 211 -918 185
-1342 -71 -602 -364 -1057 -1193 -1177 -2144 -18 -147 -39 -454 -34 -514 l3
-44 160 -112 160 -112 40 14 c52 19 159 18 213 -1 136 -49 224 -172 224 -316
0 -187 -145 -331 -332 -331 -187 0 -330 144 -330 330 0 77 18 139 55 187 l25
33 -186 158 -186 158 6 185 c34 1066 461 2068 1101 2581 195 157 429 279 623
326 l72 17 0 67 c0 97 27 417 51 609 152 1210 589 2201 1307 2962 36 38 63 70
60 73 -7 7 -345 -177 -543 -295 -1818 -1087 -3159 -2853 -3770 -4965 -159
-549 -265 -1083 -325 -1637 l-12 -108 82 -122 c712 -1056 1749 -1936 2977
-2525 1575 -755 3481 -1133 5718 -1133 2554 0 4726 507 6362 1486 945 565
1692 1259 2297 2134 l108 155 -7 70 c-20 212 -86 629 -141 885 -535 2506
-2105 4632 -4344 5882 -157 88 -320 171 -326 166 -2 -2 44 -55 103 -118 598
-647 1021 -1389 1267 -2223 30 -100 66 -239 82 -308 l27 -126 82 -12 c542 -76
994 -516 1092 -1065 21 -119 21 -323 0 -442 -84 -470 -423 -861 -876 -1013
-51 -17 -134 -39 -185 -48 -117 -21 -323 -21 -442 0 -406 72 -761 340 -949
715 -143 289 -169 655 -66 969 126 385 442 704 821 829 47 15 88 30 93 34 8 7
-46 234 -98 405 -94 312 -185 540 -331 835 -165 331 -314 574 -528 858 -302
400 -710 800 -1114 1092 -73 52 -132 97 -132 100 0 3 34 48 76 100 809 1021
1332 2419 1484 3965 12 116 27 264 35 330 148 1243 -191 2505 -936 3486 -657
864 -1592 1459 -2614 1664 -300 60 -575 86 -870 83 -99 -1 -198 -3 -220 -5z
m-2427 -2882 c134 -69 547 -222 837 -311 568 -174 1102 -275 1645 -311 213
-14 651 -6 840 15 644 72 1148 246 1634 563 76 50 101 61 108 51 126 -186 462
-823 588 -1113 298 -684 398 -1181 299 -1483 -12 -35 -19 -65 -17 -67 2 -3
141 153 308 345 167 192 305 348 306 347 6 -5 -17 -327 -31 -447 -8 -69 -21
-199 -30 -290 -112 -1154 -483 -2252 -1047 -3100 -193 -289 -356 -489 -593
-726 -553 -554 -1136 -862 -1830 -966 -137 -20 -580 -17 -720 5 -623 99 -1161
369 -1680 843 -890 812 -1536 2189 -1729 3684 -40 310 -40 310 -23 310 8 0 62
-16 119 -36 122 -42 286 -122 395 -193 43 -27 79 -48 81 -47 2 2 -6 71 -18
152 -60 437 -85 841 -77 1249 6 329 21 486 68 724 81 410 238 687 454 799 50
26 67 27 113 3z m412 -7292 c413 -364 909 -644 1389 -783 1082 -315 2205 -30
3143 796 l79 70 -139 -184 c-76 -100 -622 -822 -1212 -1603 -589 -781 -1075
-1421 -1079 -1422 -3 -1 -548 750 -1210 1670 -1082 1503 -1196 1664 -1125
1597 44 -41 113 -105 154 -141z m4960 -5939 l0 -440 435 0 435 0 0 -370 0
-370 -435 0 -435 0 0 -435 0 -435 -370 0 -370 0 0 435 0 435 -435 0 -435 0 0
370 0 370 435 0 435 0 0 440 0 440 370 0 370 0 0 -440z"/>
<path d="M14295 7893 c-543 -86 -872 -648 -679 -1162 136 -363 510 -593 896
-551 363 40 638 272 744 627 23 77 27 106 27 228 0 110 -4 156 -21 216 -84
309 -318 544 -622 624 -64 17 -283 28 -345 18z"/>
</g>
</svg>
