<?xml version="1.0" encoding="UTF-8"?>
<svg xmlns="http://www.w3.org/2000/svg" version="1.1" width="100px" height="100pxpx" style="shape-rendering:geometricPrecision; text-rendering:geometricPrecision; image-rendering:optimizeQuality; fill-rule:evenodd; clip-rule:evenodd" xmlns:xlink="http://www.w3.org/1999/xlink">
<g><path style="opacity:1" fill="#000000" d="M 883.5,32.5 C 1024.49,29.9564 1141.32,81.2897 1234,186.5C 1317.38,287.974 1354.71,404.641 1346,536.5C 1341.19,613.698 1327.86,689.365 1306,763.5C 1280.37,849.101 1239.87,926.434 1184.5,995.5C 1288.22,1068.1 1358.72,1165.1 1396,1286.5C 1399.65,1299.11 1402.65,1311.77 1405,1324.5C 1343.98,1344.37 1311.15,1386.37 1306.5,1450.5C 1309.71,1510.45 1339.04,1551.62 1394.5,1574C 1449.62,1590.07 1496.79,1577.23 1536,1535.5C 1568.79,1493.72 1575.46,1448.06 1556,1398.5C 1534.13,1352.81 1497.96,1327.14 1447.5,1321.5C 1424.96,1214.22 1375.62,1121.72 1299.5,1044C 1310.78,1048.47 1321.78,1053.81 1332.5,1060C 1532.01,1174.21 1668.85,1340.38 1743,1558.5C 1762.85,1619.07 1775.51,1681.07 1781,1744.5C 1716.19,1842.32 1633.02,1920.48 1531.5,1979C 1424.51,2038.33 1310.51,2078 1189.5,2098C 1030.11,2124.27 870.112,2128.61 709.5,2111C 585.133,2098.41 465.8,2067.08 351.5,2017C 242.23,1967.72 149.064,1897.22 72,1805.5C 56.8933,1786.39 42.56,1766.73 29,1746.5C 43.631,1569.89 104.631,1411.55 212,1271.5C 288.963,1174.84 382.296,1098.51 492,1042.5C 492.667,1043.17 492.667,1043.83 492,1044.5C 435.773,1102.58 396.773,1170.91 375,1249.5C 359.979,1303.48 351.812,1358.48 350.5,1414.5C 323.704,1420.73 299.704,1432.56 278.5,1450C 241.091,1483.45 213.924,1523.95 197,1571.5C 178.821,1621.24 170.155,1672.57 171,1725.5C 183.462,1735.63 195.628,1746.13 207.5,1757C 199.506,1766.59 197.34,1777.43 201,1789.5C 206.89,1803.71 217.557,1811.38 233,1812.5C 253.268,1809.9 264.435,1798.4 266.5,1778C 263.926,1757.93 252.593,1746.76 232.5,1744.5C 227.441,1745.05 222.607,1746.39 218,1748.5C 207.157,1741.08 196.49,1733.41 186,1725.5C 184.856,1654.74 201.856,1588.74 237,1527.5C 254.698,1498.8 277.531,1474.97 305.5,1456C 367.076,1422.31 424.743,1427.97 478.5,1473C 517.695,1510.19 544.528,1555.02 559,1607.5C 570.127,1646.06 575.461,1685.39 575,1725.5C 564.096,1733.7 552.929,1741.54 541.5,1749C 535.014,1747.21 528.347,1745.71 521.5,1744.5C 496.487,1748.88 485.987,1763.55 490,1788.5C 497.244,1806.21 510.411,1813.71 529.5,1811C 545.653,1806.21 554.32,1795.38 555.5,1778.5C 554.792,1771.5 553.292,1764.83 551,1758.5C 564,1747.5 577,1736.5 590,1725.5C 591.465,1647.69 572.465,1575.35 533,1508.5C 509.894,1470.7 478.394,1442.2 438.5,1423C 423.748,1416.8 408.415,1412.97 392.5,1411.5C 393.952,1335.74 408.785,1262.74 437,1192.5C 465.976,1122.87 509.476,1064.03 567.5,1016C 586.346,1008.61 605.346,1001.61 624.5,995C 570.12,926.759 529.954,850.592 504,766.5C 481.766,692.762 468.266,617.429 463.5,540.5C 453.094,396.198 496.594,271.198 594,165.5C 673.566,84.8076 770.066,40.4743 883.5,32.5 Z M 629.5,319.5 C 643.055,323.965 656.389,329.132 669.5,335C 729.321,357.705 790.988,373.039 854.5,381C 919.15,389.168 982.817,384.501 1045.5,367C 1080.57,356.464 1112.9,340.631 1142.5,319.5C 1177.28,374.398 1205.11,432.731 1226,494.5C 1234.06,518.941 1237.06,543.941 1235,569.5C 1233.63,575.582 1232.3,581.582 1231,587.5C 1251.33,564.167 1271.67,540.833 1292,517.5C 1289.55,591.537 1278.22,664.203 1258,735.5C 1234.51,816.16 1196.18,888.493 1143,952.5C 1106.95,994.592 1063.78,1027.09 1013.5,1050C 923.121,1086.21 836.454,1078.87 753.5,1028C 700.197,993.031 656.697,948.531 623,894.5C 577.367,820.859 547.033,741.193 532,655.5C 527.851,632.626 524.685,609.626 522.5,586.5C 544.375,592.188 564.542,601.522 583,614.5C 578.816,581.986 575.816,549.319 574,516.5C 572.457,482.707 573.791,449.04 578,415.5C 580.985,391.881 587.985,369.548 599,348.5C 602.735,342.096 607.235,336.263 612.5,331C 617.798,326.521 623.464,322.687 629.5,319.5 Z M 658.5,1032.5 C 698.666,1072.44 745.332,1102.6 798.5,1123C 898.944,1156.08 993.611,1144.08 1082.5,1087C 1101.18,1074.82 1118.85,1061.32 1135.5,1046.5C 1056.27,1152.41 976.6,1258.08 896.5,1363.5C 816.412,1253.64 737.079,1143.3 658.5,1032.5 Z M 1100.5,1600.5 C 1125.17,1600.5 1149.83,1600.5 1174.5,1600.5C 1174.5,1629.83 1174.5,1659.17 1174.5,1688.5C 1203.5,1688.5 1232.5,1688.5 1261.5,1688.5C 1261.5,1713.17 1261.5,1737.83 1261.5,1762.5C 1232.5,1762.5 1203.5,1762.5 1174.5,1762.5C 1174.5,1791.5 1174.5,1820.5 1174.5,1849.5C 1149.83,1849.5 1125.17,1849.5 1100.5,1849.5C 1100.5,1820.5 1100.5,1791.5 1100.5,1762.5C 1071.5,1762.5 1042.5,1762.5 1013.5,1762.5C 1013.5,1737.83 1013.5,1713.17 1013.5,1688.5C 1042.5,1688.5 1071.5,1688.5 1100.5,1688.5C 1100.5,1659.17 1100.5,1629.83 1100.5,1600.5 Z"/></g>
<g><path style="opacity:1" fill="#000000" d="M 1431.5,1364.5 C 1475.09,1362.19 1505.59,1380.86 1523,1420.5C 1535.43,1461.65 1524.93,1495.48 1491.5,1522C 1457.03,1543.2 1423.03,1542.54 1389.5,1520C 1358.93,1493.93 1349.09,1461.43 1360,1422.5C 1373.1,1389.73 1396.93,1370.4 1431.5,1364.5 Z"/></g>
</svg>

